<?xml version="1.0" standalone="no"?>
<!DOCTYPE svg PUBLIC "-//W3C//DTD SVG 20010904//EN"
 "http://www.w3.org/TR/2001/REC-SVG-20010904/DTD/svg10.dtd">
<svg version="1.0" xmlns="http://www.w3.org/2000/svg"
 width="100.000000pt" height="100.000000pt" viewBox="0 0 100.000000 100.000000"
 preserveAspectRatio="xMidYMid meet">

<g transform="translate(0.000000,100.000000) scale(0.100000,-0.100000)"
fill="#000000" stroke="none">
<path d="M530 501 l0 -171 40 0 40 0 0 60 0 60 45 0 c93 0 147 60 125 139 -15
58 -47 74 -157 79 l-93 4 0 -171z m160 85 c6 -8 10 -25 8 -38 -2 -19 -10 -23
-45 -26 l-43 -3 0 40 c0 40 1 41 34 41 18 0 39 -7 46 -14z"/>
</g>
</svg>
